# xmcd CD database file
#
# Track frame offsets:
#	150
#	13447
#	25916
#	36037
#	48427
#	57308
#	69452
#	78458
#	88263
#	100507
#	107988
#	118690
#	128658
#	138242
#	145450
#	154484
#	166400
#	176423
#	189966
#	200535
#
# Disc length: 2815 seconds
#
# Revision: 0
# Processed by: cddbd v1.5.2PL0 Copyright (c) Steve Scherf et al.
# Submitted via: CDex 1.70beta2
#
DISCID=1b0afd14
DTITLE=Various Artist - Train Songs CD 8 - One Way Track
DYEAR=2011
DGENRE=Country
TTITLE0=Chas McDevitt Skiffle Group - Freight Train
TTITLE1=Hank Snow - Ben Dewberry's Final Run
TTITLE2=Hank Davis - One Way Track
TTITLE3=Homer Zeke Clemons - Dallas Limited
TTITLE4=Lonnie Donegan Skiffle Group - Wabash Cannonball
TTITLE5=Wayne Buscbie - Going Back To Dixie
TTITLE6=Johnny Cash - One More Ride
TTITLE7=Hank Spurling - Box Car Blues
TTITLE8=Joe Lewis - Train Whistle Nightmare
TTITLE9=Jimmy North - Leavin' Town
TTITLE10=Lonnie Donegan Skiffle Group - Railroad Bill
TTITLE11=Willie Tremain's Thunderbirds - Midnite Express
TTITLE12=Floyd Fletcher - Move On Down The Track
TTITLE13=Grover Pruitt - Mean Train
TTITLE14=Don Lang Skiffle Group - The Cattle Train
TTITLE15=Leon James - Ride That Train
TTITLE16=Eddie Cletro - Lonesome Train Boogie
TTITLE17=Earl Bostic - Steam Whistle Jump
TTITLE18=Maddox Brothers and Rose - Old Black Choo Choo
TTITLE19=Wilbert Harrison - Florida Special
EXTD=YEAR: 2011
EXTT0=
EXTT1=
EXTT2=
EXTT3=
EXTT4=
EXTT5=
EXTT6=
EXTT7=
EXTT8=
EXTT9=
EXTT10=
EXTT11=
EXTT12=
EXTT13=
EXTT14=
EXTT15=
EXTT16=
EXTT17=
EXTT18=
EXTT19=
PLAYORDER=
